<svg xmlns="http://www.w3.org/2000/svg" width="26.546" height="24.763" viewBox="0 0 26.546 24.763">
  <path id="shipping" d="M24.487,29.991V17.9a.781.781,0,0,0-.781-.781H2.784A.781.781,0,0,0,2,17.9V30.955a2.344,2.344,0,0,0-1.48,3.806L4.04,39.025c2.177,2.548,4.49,2.86,7.928,2.86a25.606,25.606,0,0,0,6.841-.573l2.5-.6a2.185,2.185,0,0,0,1.775.934h1.233a2.287,2.287,0,0,0,2.223-2.342V32.326A2.3,2.3,0,0,0,24.487,29.991ZM20.977,31.6l-1.04-.528a6.187,6.187,0,0,0-5.426-.088,7.46,7.46,0,0,1-2.045.791H8.855a2.174,2.174,0,0,0-2.172,2.172v.569l-.02-.021-2.578-2.8a2.378,2.378,0,0,0-.519-.425V23.522h6.39v2.863a.781.781,0,0,0,.781.781h4.927a.781.781,0,0,0,.781-.781V23.522h6.48v6.469A2.252,2.252,0,0,0,20.977,31.6Zm-9.46-8.075h3.366V25.6H11.517Zm11.408-1.562h-6.48V18.684h6.48v3.277Zm-8.042-3.277v3.277H11.517V18.684Zm-4.928,0v3.277H3.565V18.684Zm8.492,21.109A24.843,24.843,0,0,1,12,40.315c-3.228,0-4.787-.052-6.752-2.284L1.728,33.767a.79.79,0,0,1,1.208-1.014l2.578,2.8a3.545,3.545,0,0,0,2.6,1.138h7.148a.781.781,0,0,0,0-1.562H8.245V33.944a.611.611,0,0,1,.61-.61h3.61a7.148,7.148,0,0,0,2.7-.937,4.632,4.632,0,0,1,4.062.065l1.635.831v5.922Zm6.536-.487a.729.729,0,0,1-.661.78H23.089a.729.729,0,0,1-.661-.78V32.326a.729.729,0,0,1,.661-.78h1.233a.729.729,0,0,1,.661.78Z" transform="translate(0.001 -17.122)" fill="#c64284"/>
</svg>
