<svg xmlns="http://www.w3.org/2000/svg" width="24" height="19.9" viewBox="0 0 24 19.9">
  <g id="group" transform="translate(0 -43.729)">
    <g id="Group_13" data-name="Group 13" transform="translate(0 52.445)">
      <g id="Group_12" data-name="Group 12">
        <path id="Path_6" data-name="Path 6" d="M20.484,231.483H18.135a3.507,3.507,0,0,0-.924.124,3.519,3.519,0,0,0-3.135-1.927H9.924a3.519,3.519,0,0,0-3.135,1.927,3.507,3.507,0,0,0-.924-.124H3.516A3.52,3.52,0,0,0,0,235v3.756a2.112,2.112,0,0,0,2.109,2.109H21.891A2.112,2.112,0,0,0,24,238.755V235A3.52,3.52,0,0,0,20.484,231.483ZM6.408,233.2v6.262h-4.3a.7.7,0,0,1-.7-.7V235a2.112,2.112,0,0,1,2.109-2.109H5.865a2.1,2.1,0,0,1,.552.074C6.412,233.04,6.408,233.118,6.408,233.2Zm9.778,6.262H7.814V233.2a2.112,2.112,0,0,1,2.109-2.109h4.153a2.112,2.112,0,0,1,2.109,2.109Zm6.408-.7a.7.7,0,0,1-.7.7h-4.3V233.2c0-.078,0-.155-.009-.232a2.1,2.1,0,0,1,.552-.074h2.349A2.112,2.112,0,0,1,22.594,235Z" transform="translate(0 -229.68)" fill="#ebac15"/>
      </g>
    </g>
    <g id="Group_15" data-name="Group 15" transform="translate(1.566 47.609)">
      <g id="Group_14" data-name="Group 14">
        <path id="Path_7" data-name="Path 7" d="M36.538,126.5a3.124,3.124,0,1,0,3.124,3.124A3.128,3.128,0,0,0,36.538,126.5Zm0,4.842a1.718,1.718,0,1,1,1.718-1.718A1.72,1.72,0,0,1,36.538,131.346Z" transform="translate(-33.414 -126.504)" fill="#ebac15"/>
      </g>
    </g>
    <g id="Group_17" data-name="Group 17" transform="translate(7.826 43.729)">
      <g id="Group_16" data-name="Group 16">
        <path id="Path_8" data-name="Path 8" d="M171.136,43.729a4.174,4.174,0,1,0,4.174,4.174A4.178,4.178,0,0,0,171.136,43.729Zm0,6.941A2.767,2.767,0,1,1,173.9,47.9,2.771,2.771,0,0,1,171.136,50.67Z" transform="translate(-166.962 -43.729)" fill="#ebac15"/>
      </g>
    </g>
    <g id="Group_19" data-name="Group 19" transform="translate(16.186 47.609)">
      <g id="Group_18" data-name="Group 18">
        <path id="Path_9" data-name="Path 9" d="M348.418,126.5a3.124,3.124,0,1,0,3.124,3.124A3.128,3.128,0,0,0,348.418,126.5Zm0,4.842a1.718,1.718,0,1,1,1.718-1.718A1.72,1.72,0,0,1,348.418,131.346Z" transform="translate(-345.294 -126.504)" fill="#ebac15"/>
      </g>
    </g>
  </g>
</svg>
