<svg id="color-selection" xmlns="http://www.w3.org/2000/svg" width="25" height="25" viewBox="0 0 25 25">
  <path id="Path_93" data-name="Path 93" d="M63.2,361a2.2,2.2,0,1,0,2.2,2.2A2.2,2.2,0,0,0,63.2,361Zm0,2.93a.732.732,0,1,1,.732-.732A.733.733,0,0,1,63.2,363.93Z" transform="translate(-58.021 -343.373)" fill="#4ea71b"/>
  <path id="Path_94" data-name="Path 94" d="M21.338,14.746H17.5l7.281-7.281a.732.732,0,0,0,0-1.036L20.642,2.286a3.666,3.666,0,0,0-5.179,0L10.254,7.5V.732A.732.732,0,0,0,9.521,0H3.662A3.666,3.666,0,0,0,0,3.662V21.338A3.666,3.666,0,0,0,3.662,25H24.268A.732.732,0,0,0,25,24.268V18.408A3.666,3.666,0,0,0,21.338,14.746Zm-9.021,0L8.7,11.125l4.143-4.143,5.179,5.179-2.585,2.585ZM1.465,8.887H8.789V8.96L3,14.746H1.465Zm6.2,3.274,2.585,2.585H5.075ZM16.5,3.322a2.2,2.2,0,0,1,3.107,0l3.625,3.625-4.178,4.178L13.875,5.946ZM3.662,1.465H8.789V7.422H1.465V3.662a2.2,2.2,0,0,1,2.2-2.2Zm19.873,22.07H3.662a2.2,2.2,0,0,1-2.2-2.2V16.211H21.338a2.2,2.2,0,0,1,2.2,2.2Z" fill="#4ea71b"/>
</svg>
