<svg xmlns="http://www.w3.org/2000/svg" width="25" height="23.947" viewBox="0 0 25 23.947">
  <g id="offer-9675" transform="translate(126.038 120.73)">
    <g id="Group_366" data-name="Group 366" transform="translate(-126.038 -120.73)">
      <path id="Path_106" data-name="Path 106" d="M72.735,76.52A2.418,2.418,0,1,1,75.153,74.1,2.421,2.421,0,0,1,72.735,76.52Zm0-3.725A1.307,1.307,0,1,0,74.042,74.1,1.309,1.309,0,0,0,72.735,72.795Z" transform="translate(-63.343 -65.101)" fill="#38afaf"/>
      <path id="Path_107" data-name="Path 107" d="M76.344,82.466a.555.555,0,0,1-.409-.931l8.856-9.67a.555.555,0,0,1,.819.75l-8.855,9.67A.555.555,0,0,1,76.344,82.466Z" transform="translate(-68.272 -65.102)" fill="#38afaf"/>
      <path id="Path_108" data-name="Path 108" d="M138.148,136.462a2.418,2.418,0,1,1,2.418-2.418A2.421,2.421,0,0,1,138.148,136.462Zm0-3.725a1.307,1.307,0,1,0,1.307,1.307A1.309,1.309,0,0,0,138.148,132.737Z" transform="translate(-122.268 -119.098)" fill="#38afaf"/>
      <path id="Path_109" data-name="Path 109" d="M15.823,29.253a1.757,1.757,0,0,1-.772-.18l-2.272-1.111a.634.634,0,0,0-.561,0L9.945,29.073a1.742,1.742,0,0,1-2.314-.752L6.446,26.087a.633.633,0,0,0-.454-.33L3.5,25.32a1.743,1.743,0,0,1-1.43-1.969l.354-2.5a.643.643,0,0,0-.173-.534L.493,18.5a1.742,1.742,0,0,1,0-2.433l1.758-1.817a.635.635,0,0,0,.173-.534l-.354-2.5A1.743,1.743,0,0,1,3.5,9.239L5.992,8.8a.636.636,0,0,0,.454-.33L7.631,6.238a1.742,1.742,0,0,1,2.314-.752L12.217,6.6a.637.637,0,0,0,.561,0l2.272-1.111a1.742,1.742,0,0,1,2.314.752L18.55,8.472A.635.635,0,0,0,19,8.8l2.491.437a1.743,1.743,0,0,1,1.43,1.969l-.354,2.5a.634.634,0,0,0,.174.534L24.5,16.062a1.743,1.743,0,0,1,0,2.433l-1.758,1.817a.635.635,0,0,0-.174.534l.354,2.5A1.743,1.743,0,0,1,21.5,25.32L19,25.757a.633.633,0,0,0-.454.329l-1.186,2.235A1.743,1.743,0,0,1,15.823,29.253ZM12.5,26.785a1.751,1.751,0,0,1,.769.179l2.272,1.111a.637.637,0,0,0,.845-.274l1.186-2.234a1.736,1.736,0,0,1,1.244-.9l2.491-.437a.636.636,0,0,0,.522-.719L21.471,21a1.738,1.738,0,0,1,.476-1.462L23.7,17.724a.636.636,0,0,0,0-.888l-1.758-1.817a1.739,1.739,0,0,1-.475-1.462l.354-2.5a.636.636,0,0,0-.522-.719L18.812,9.9a1.739,1.739,0,0,1-1.244-.9L16.384,6.759a.636.636,0,0,0-.845-.275L13.266,7.6h0a1.739,1.739,0,0,1-1.537,0L9.458,6.484a.637.637,0,0,0-.845.275L7.427,8.993a1.739,1.739,0,0,1-1.243.9l-2.491.437a.636.636,0,0,0-.522.719l.354,2.5a1.738,1.738,0,0,1-.475,1.462L1.292,16.835a.636.636,0,0,0,0,.888L3.05,19.541A1.738,1.738,0,0,1,3.525,21l-.354,2.5a.636.636,0,0,0,.522.719l2.491.437a1.738,1.738,0,0,1,1.244.9L8.613,27.8a.637.637,0,0,0,.845.274l2.272-1.111A1.741,1.741,0,0,1,12.5,26.785ZM13.022,7.1h0Z" transform="translate(0.002 -5.306)" fill="#38afaf"/>
    </g>
  </g>
</svg>
