<svg xmlns="http://www.w3.org/2000/svg" width="35" height="42.843" viewBox="0 0 35 42.843">
  <g id="Group_445" data-name="Group 445" transform="translate(-19 -239)">
    <g id="group" transform="translate(19 252.821)">
      <g id="Group_13" data-name="Group 13" transform="translate(0 12.711)">
        <g id="Group_12" data-name="Group 12">
          <path id="Path_6" data-name="Path 6" d="M29.873,232.31H26.447a5.115,5.115,0,0,0-1.347.181,5.131,5.131,0,0,0-4.572-2.811H14.472A5.131,5.131,0,0,0,9.9,232.491a5.115,5.115,0,0,0-1.347-.181H5.127A5.133,5.133,0,0,0,0,237.437v5.477a3.08,3.08,0,0,0,3.076,3.076H31.924A3.08,3.08,0,0,0,35,242.914v-5.477A5.133,5.133,0,0,0,29.873,232.31Zm-20.528,2.5v9.132H3.076a1.027,1.027,0,0,1-1.025-1.025v-5.477a3.08,3.08,0,0,1,3.076-3.076H8.553a3.066,3.066,0,0,1,.8.107C9.35,234.58,9.345,234.693,9.345,234.807ZM23.6,243.939H11.4v-9.132a3.08,3.08,0,0,1,3.076-3.076h6.056a3.08,3.08,0,0,1,3.076,3.076Zm9.345-1.025a1.027,1.027,0,0,1-1.025,1.025H25.655v-9.132c0-.114-.005-.227-.012-.339a3.07,3.07,0,0,1,.8-.107h3.426a3.08,3.08,0,0,1,3.076,3.076Z" transform="translate(0 -229.68)" fill="#c715eb"/>
        </g>
      </g>
      <g id="Group_15" data-name="Group 15" transform="translate(2.284 5.658)">
        <g id="Group_14" data-name="Group 14">
          <path id="Path_7" data-name="Path 7" d="M37.97,126.5a4.556,4.556,0,1,0,4.556,4.556A4.561,4.561,0,0,0,37.97,126.5Zm0,7.061a2.505,2.505,0,1,1,2.505-2.505A2.508,2.508,0,0,1,37.97,133.565Z" transform="translate(-33.414 -126.504)" fill="#c715eb"/>
        </g>
      </g>
      <g id="Group_17" data-name="Group 17" transform="translate(11.413 0)">
        <g id="Group_16" data-name="Group 16">
          <path id="Path_8" data-name="Path 8" d="M173.049,43.729a6.087,6.087,0,1,0,6.087,6.087A6.093,6.093,0,0,0,173.049,43.729Zm0,10.122a4.036,4.036,0,1,1,4.036-4.036A4.04,4.04,0,0,1,173.049,53.851Z" transform="translate(-166.962 -43.729)" fill="#c715eb"/>
        </g>
      </g>
      <g id="Group_19" data-name="Group 19" transform="translate(23.604 5.658)">
        <g id="Group_18" data-name="Group 18">
          <path id="Path_9" data-name="Path 9" d="M349.85,126.5a4.556,4.556,0,1,0,4.556,4.556A4.561,4.561,0,0,0,349.85,126.5Zm0,7.061a2.505,2.505,0,1,1,2.505-2.505A2.508,2.508,0,0,1,349.85,133.565Z" transform="translate(-345.294 -126.504)" fill="#c715eb"/>
        </g>
      </g>
    </g>
    <g id="Polygon_2" data-name="Polygon 2" transform="translate(32.125 239)" fill="none">
      <path d="M4.375,0,5.906,2.621l2.844.721-1.9,2.341L7.079,8.75l-2.7-1.174L1.671,8.75,1.9,5.683,0,3.342l2.844-.721Z" stroke="none"/>
      <path d="M 4.375 2.973438739776611 L 3.82181978225708 3.920249938964844 L 2.641839504241943 4.219564437866211 L 3.437079906463623 5.200789928436279 L 3.349618434906006 6.38596773147583 L 4.375 5.940790176391602 L 5.400381565093994 6.38596773147583 L 5.312920093536377 5.200789928436279 L 6.108160018920898 4.219564437866211 L 4.928179740905762 3.920249938964844 L 4.375 2.973438739776611 M 4.375 0 L 5.90625 2.620840072631836 L 8.75 3.342199802398682 L 6.852610111236572 5.683340072631836 L 7.07889986038208 8.75 L 4.375 7.57606029510498 L 1.67110013961792 8.75 L 1.897389888763428 5.683340072631836 L 0 3.342199802398682 L 2.84375 2.620840072631836 L 4.375 0 Z" stroke="none" fill="#c715eb"/>
    </g>
    <g id="Polygon_4" data-name="Polygon 4" transform="translate(21.917 244.833)" fill="none">
      <path d="M4.375,0,5.906,2.621l2.844.721-1.9,2.341L7.079,8.75l-2.7-1.174L1.671,8.75,1.9,5.683,0,3.342l2.844-.721Z" stroke="none"/>
      <path d="M 4.375 2.973438739776611 L 3.82181978225708 3.920249938964844 L 2.641839504241943 4.219564437866211 L 3.437079906463623 5.200789928436279 L 3.349618434906006 6.38596773147583 L 4.375 5.940790176391602 L 5.400381565093994 6.38596773147583 L 5.312920093536377 5.200789928436279 L 6.108160018920898 4.219564437866211 L 4.928179740905762 3.920249938964844 L 4.375 2.973438739776611 M 4.375 0 L 5.90625 2.620840072631836 L 8.75 3.342199802398682 L 6.852610111236572 5.683340072631836 L 7.07889986038208 8.75 L 4.375 7.57606029510498 L 1.67110013961792 8.75 L 1.897389888763428 5.683340072631836 L 0 3.342199802398682 L 2.84375 2.620840072631836 L 4.375 0 Z" stroke="none" fill="#c715eb"/>
    </g>
    <g id="Polygon_3" data-name="Polygon 3" transform="translate(42.333 244.833)" fill="none">
      <path d="M4.375,0,5.906,2.621l2.844.721-1.9,2.341L7.079,8.75l-2.7-1.174L1.671,8.75,1.9,5.683,0,3.342l2.844-.721Z" stroke="none"/>
      <path d="M 4.375 2.973438739776611 L 3.82181978225708 3.920249938964844 L 2.641839504241943 4.219564437866211 L 3.437079906463623 5.200789928436279 L 3.349618434906006 6.38596773147583 L 4.375 5.940790176391602 L 5.400381565093994 6.38596773147583 L 5.312920093536377 5.200789928436279 L 6.108160018920898 4.219564437866211 L 4.928179740905762 3.920249938964844 L 4.375 2.973438739776611 M 4.375 0 L 5.90625 2.620840072631836 L 8.75 3.342199802398682 L 6.852610111236572 5.683340072631836 L 7.07889986038208 8.75 L 4.375 7.57606029510498 L 1.67110013961792 8.75 L 1.897389888763428 5.683340072631836 L 0 3.342199802398682 L 2.84375 2.620840072631836 L 4.375 0 Z" stroke="none" fill="#c715eb"/>
    </g>
  </g>
</svg>
