<svg xmlns="http://www.w3.org/2000/svg" width="25" height="19.386" viewBox="0 0 25 19.386">
  <g id="Group_631" data-name="Group 631" transform="translate(-134.5 -241)">
    <path id="folder_2_" data-name="folder (2)" d="M24.709,8.813a2.089,2.089,0,0,0-1.8-.979h-1.86V4.423A1.523,1.523,0,0,0,19.5,2.93H10.4a.051.051,0,0,1-.026-.006L8.746.645A1.565,1.565,0,0,0,7.472,0H1.548A1.523,1.523,0,0,0,0,1.493V17.858a1.56,1.56,0,0,0,1.586,1.528H20.012a.732.732,0,0,0,.655-.406h0L24.8,10.687a1.916,1.916,0,0,0-.088-1.874ZM1.548,1.465H7.472a.106.106,0,0,1,.083.032L9.186,3.779a1.492,1.492,0,0,0,1.215.616h9.1a.1.1,0,0,1,.084.033V7.834H6.333a2.1,2.1,0,0,0-1.9,1.18L1.465,15.356V1.5a.1.1,0,0,1,.084-.033Zm21.937,8.569-3.927,7.887H1.883L5.755,9.635A.635.635,0,0,1,6.333,9.3h16.58a.635.635,0,0,1,.55.285.444.444,0,0,1,.022.45Zm0,0" transform="translate(134.5 241)" fill="#fff"/>
  </g>
</svg>
