<svg xmlns="http://www.w3.org/2000/svg" width="35" height="32.65" viewBox="0 0 35 32.65">
  <path id="shipping" d="M32.286,34.09V18.152a1.03,1.03,0,0,0-1.03-1.03H3.671a1.03,1.03,0,0,0-1.03,1.03V35.36A3.091,3.091,0,0,0,.69,40.378L5.327,46c2.871,3.36,5.92,3.771,10.453,3.771a33.76,33.76,0,0,0,9.02-.755l3.3-.79a2.881,2.881,0,0,0,2.341,1.232h1.626A3.015,3.015,0,0,0,35,46.371v-9.2A3.029,3.029,0,0,0,32.286,34.09Zm-4.628,2.118-1.372-.7a8.157,8.157,0,0,0-7.154-.115,9.836,9.836,0,0,1-2.7,1.043h-4.76A2.867,2.867,0,0,0,8.812,39.3v.751l-.027-.028-3.4-3.69a3.136,3.136,0,0,0-.685-.56V25.561h8.426v3.774a1.03,1.03,0,0,0,1.03,1.03h6.5a1.03,1.03,0,0,0,1.03-1.03V25.561h8.544V34.09a2.969,2.969,0,0,0-2.569,2.118ZM15.186,25.561h4.438v2.745H15.186ZM30.226,23.5H21.682v-4.32h8.544V23.5Zm-10.6-4.32V23.5H15.186v-4.32Zm-6.5,0V23.5H4.7v-4.32Zm11.2,27.832a32.754,32.754,0,0,1-8.505.688c-4.256,0-6.312-.069-8.9-3.012L2.278,39.068a1.041,1.041,0,0,1,1.593-1.337l3.4,3.69a4.674,4.674,0,0,0,3.422,1.5h9.425a1.03,1.03,0,0,0,0-2.059H10.871V39.3a.805.805,0,0,1,.8-.8h4.76c1.072.077,2.62-.819,3.564-1.235a6.108,6.108,0,0,1,5.356.085l2.156,1.1V46.25Zm8.617-.642a.961.961,0,0,1-.871,1.028H30.442a.961.961,0,0,1-.871-1.028v-9.2a.961.961,0,0,1,.871-1.028h1.626a.961.961,0,0,1,.871,1.028Z" transform="translate(0.001 -17.122)" fill="#c64284"/>
</svg>
