<svg xmlns="http://www.w3.org/2000/svg" width="34.689" height="28.763" viewBox="0 0 34.689 28.763">
  <g id="group" transform="translate(0 -43.729)">
    <g id="Group_13" data-name="Group 13" transform="translate(0 56.327)">
      <g id="Group_12" data-name="Group 12">
        <path id="Path_6" data-name="Path 6" d="M29.607,232.287h-3.4a5.069,5.069,0,0,0-1.335.179,5.086,5.086,0,0,0-4.531-2.786h-6a5.086,5.086,0,0,0-4.531,2.786,5.069,5.069,0,0,0-1.335-.179h-3.4A5.087,5.087,0,0,0,0,237.368V242.8a3.052,3.052,0,0,0,3.049,3.049H31.64a3.052,3.052,0,0,0,3.049-3.049v-5.428A5.087,5.087,0,0,0,29.607,232.287ZM9.262,234.761v9.051H3.049A1.017,1.017,0,0,1,2.033,242.8v-5.428a3.052,3.052,0,0,1,3.049-3.049h3.4a3.038,3.038,0,0,1,.8.107C9.267,234.537,9.262,234.649,9.262,234.761Zm14.132,9.051h-12.1v-9.051a3.052,3.052,0,0,1,3.049-3.049h6a3.052,3.052,0,0,1,3.049,3.049Zm9.262-1.016a1.017,1.017,0,0,1-1.016,1.016H25.427v-9.051c0-.113-.005-.225-.012-.336a3.042,3.042,0,0,1,.8-.107h3.4a3.052,3.052,0,0,1,3.049,3.049Z" transform="translate(0 -229.68)" fill="#ebac15"/>
      </g>
    </g>
    <g id="Group_15" data-name="Group 15" transform="translate(2.264 49.337)">
      <g id="Group_14" data-name="Group 14">
        <path id="Path_7" data-name="Path 7" d="M37.929,126.5a4.515,4.515,0,1,0,4.515,4.515A4.52,4.52,0,0,0,37.929,126.5Zm0,7a2.483,2.483,0,1,1,2.483-2.483A2.486,2.486,0,0,1,37.929,133.5Z" transform="translate(-33.414 -126.504)" fill="#ebac15"/>
      </g>
    </g>
    <g id="Group_17" data-name="Group 17" transform="translate(11.312 43.729)">
      <g id="Group_16" data-name="Group 16">
        <path id="Path_8" data-name="Path 8" d="M172.994,43.729a6.032,6.032,0,1,0,6.032,6.032A6.039,6.039,0,0,0,172.994,43.729Zm0,10.032a4,4,0,1,1,4-4A4,4,0,0,1,172.994,53.761Z" transform="translate(-166.962 -43.729)" fill="#ebac15"/>
      </g>
    </g>
    <g id="Group_19" data-name="Group 19" transform="translate(23.394 49.337)">
      <g id="Group_18" data-name="Group 18">
        <path id="Path_9" data-name="Path 9" d="M349.809,126.5a4.515,4.515,0,1,0,4.515,4.515A4.52,4.52,0,0,0,349.809,126.5Zm0,7a2.483,2.483,0,1,1,2.483-2.483A2.486,2.486,0,0,1,349.809,133.5Z" transform="translate(-345.294 -126.504)" fill="#ebac15"/>
      </g>
    </g>
  </g>
</svg>
