<svg xmlns="http://www.w3.org/2000/svg" width="25" height="20.508" viewBox="0 0 25 20.508">
  <g id="menu" transform="translate(0 -46)">
    <g id="Group_360" data-name="Group 360" transform="translate(0 46)">
      <path id="Path_87" data-name="Path 87" d="M2.93,51.859a2.93,2.93,0,1,1,2.93-2.93A2.933,2.933,0,0,1,2.93,51.859Zm0-4.395A1.465,1.465,0,1,0,4.395,48.93,1.467,1.467,0,0,0,2.93,47.465Z" transform="translate(0 -46)" fill="#fff"/>
    </g>
    <g id="Group_361" data-name="Group 361" transform="translate(0 53.324)">
      <path id="Path_88" data-name="Path 88" d="M2.93,201.859a2.93,2.93,0,1,1,2.93-2.93A2.933,2.933,0,0,1,2.93,201.859Zm0-4.395a1.465,1.465,0,1,0,1.465,1.465A1.467,1.467,0,0,0,2.93,197.465Z" transform="translate(0 -196)" fill="#fff"/>
    </g>
    <g id="Group_362" data-name="Group 362" transform="translate(0 60.648)">
      <path id="Path_89" data-name="Path 89" d="M2.93,351.859a2.93,2.93,0,1,1,2.93-2.93A2.933,2.933,0,0,1,2.93,351.859Zm0-4.395a1.465,1.465,0,1,0,1.465,1.465A1.467,1.467,0,0,0,2.93,347.465Z" transform="translate(0 -346)" fill="#fff"/>
    </g>
    <g id="Group_363" data-name="Group 363" transform="translate(7.324 46)">
      <path id="Path_90" data-name="Path 90" d="M166.943,51.859H150.732a.732.732,0,0,1-.732-.732V46.732a.732.732,0,0,1,.732-.732h16.211a.732.732,0,0,1,.732.732v4.395A.732.732,0,0,1,166.943,51.859Zm-15.479-1.465h14.746v-2.93H151.465Z" transform="translate(-150 -46)" fill="#fff"/>
    </g>
    <g id="Group_364" data-name="Group 364" transform="translate(7.324 53.324)">
      <path id="Path_91" data-name="Path 91" d="M166.943,201.859H150.732a.732.732,0,0,1-.732-.732v-4.395a.732.732,0,0,1,.732-.732h16.211a.732.732,0,0,1,.732.732v4.395A.732.732,0,0,1,166.943,201.859Zm-15.479-1.465h14.746v-2.93H151.465Z" transform="translate(-150 -196)" fill="#fff"/>
    </g>
    <g id="Group_365" data-name="Group 365" transform="translate(7.324 60.648)">
      <path id="Path_92" data-name="Path 92" d="M166.943,351.859H150.732a.732.732,0,0,1-.732-.732v-4.395a.732.732,0,0,1,.732-.732h16.211a.732.732,0,0,1,.732.732v4.395A.732.732,0,0,1,166.943,351.859Zm-15.479-1.465h14.746v-2.93H151.465Z" transform="translate(-150 -346)" fill="#fff"/>
    </g>
  </g>
</svg>
